<svg width="14" height="14" viewBox="0 0 14 14" fill="none" xmlns="http://www.w3.org/2000/svg">
<g id="Star" clip-path="url(#clip0_2001_120)">
<path id="Star_2" d="M6.60453 1.5302C6.71384 1.26739 7.08615 1.26739 7.19546 1.5302L8.51775 4.70939C8.56384 4.82018 8.66803 4.89589 8.78765 4.90548L12.2198 5.18063C12.5036 5.20338 12.6186 5.55746 12.4025 5.74264L9.78748 7.98264C9.69634 8.0607 9.65654 8.18319 9.68439 8.29991L10.4833 11.6492C10.5493 11.926 10.2481 12.1449 10.0052 11.9965L7.06679 10.2017C6.96439 10.1392 6.8356 10.1392 6.73319 10.2017L3.79475 11.9965C3.55184 12.1449 3.25064 11.926 3.31668 11.6492L4.1156 8.29991C4.14344 8.18319 4.10364 8.0607 4.01251 7.98264L1.39754 5.74264C1.18136 5.55746 1.29641 5.20338 1.58014 5.18063L5.01234 4.90548C5.13195 4.89589 5.23615 4.82018 5.28223 4.70939L6.60453 1.5302Z" fill="#FDB022"/>
</g>
<defs>
<clipPath id="clip0_2001_120">
<rect width="12.8" height="12.8" fill="white" transform="translate(0.5 0.5)"/>
</clipPath>
</defs>
</svg>
